<svg width="24" height="24" viewBox="0 0 24 24" xmlns="http://www.w3.org/2000/svg">
  <!-- Cleaning Brush Base -->
  <path d="M8 4v7c0 1.1.9 2 2 2h4c1.1 0 2-.9 2-2V4" fill="#ffffff"/>
  
  <!-- Brush Handle -->
  <rect x="11" y="2" width="2" height="4" rx="1" fill="#ffffff"/>
  
  <!-- Water Droplets/Bubbles -->
  <circle cx="7" cy="14" r="1.5" fill="#ffffff" opacity="0.9"/>
  <circle cx="10" cy="16" r="1" fill="#ffffff" opacity="0.7"/>
  <circle cx="14" cy="15" r="1.2" fill="#ffffff" opacity="0.8"/>
  <circle cx="17" cy="13" r="1" fill="#ffffff" opacity="0.7"/>
  
  <!-- Sparkle Elements -->
  <path d="M19 8l1 1-1 1-1-1z" fill="#ffffff"/>
  <path d="M5 10l1 1-1 1-1-1z" fill="#ffffff"/>
  <path d="M12 19l1 1-1 1-1-1z" fill="#ffffff"/>
  
  <!-- Circular Background -->
  <circle cx="12" cy="12" r="10" fill="none" stroke="#ffffff" stroke-width="1" opacity="0.3"/>
</svg>